<mxfile host="Electron" agent="Mozilla/5.0 (Windows NT 10.0; Win64; x64) AppleWebKit/537.36 (KHTML, like Gecko) draw.io/24.7.5 Chrome/126.0.6478.183 Electron/31.3.0 Safari/537.36" version="24.7.5">
  <diagram name="Page-1" id="7o2ZdR5I2XW4LoCh4PYN">
    <mxGraphModel dx="1648" dy="978" grid="1" gridSize="10" guides="1" tooltips="1" connect="1" arrows="1" fold="1" page="1" pageScale="1" pageWidth="850" pageHeight="1100" background="#000000" math="0" shadow="0">
      <root>
        <mxCell id="0" />
        <mxCell id="1" parent="0" />
        <mxCell id="8Ee2z_IYM4hgPgskfKjv-8" style="edgeStyle=orthogonalEdgeStyle;rounded=0;orthogonalLoop=1;jettySize=auto;html=1;" edge="1" parent="1" source="8Ee2z_IYM4hgPgskfKjv-1" target="8Ee2z_IYM4hgPgskfKjv-6">
          <mxGeometry relative="1" as="geometry" />
        </mxCell>
        <mxCell id="8Ee2z_IYM4hgPgskfKjv-58" style="edgeStyle=orthogonalEdgeStyle;rounded=0;orthogonalLoop=1;jettySize=auto;html=1;exitX=0.5;exitY=1;exitDx=0;exitDy=0;entryX=0.5;entryY=0;entryDx=0;entryDy=0;" edge="1" parent="1" source="8Ee2z_IYM4hgPgskfKjv-1" target="8Ee2z_IYM4hgPgskfKjv-56">
          <mxGeometry relative="1" as="geometry" />
        </mxCell>
        <mxCell id="8Ee2z_IYM4hgPgskfKjv-1" value="user" style="whiteSpace=wrap;html=1;align=center;" vertex="1" parent="1">
          <mxGeometry x="380" y="270" width="120" height="40" as="geometry" />
        </mxCell>
        <mxCell id="8Ee2z_IYM4hgPgskfKjv-2" value="pass" style="ellipse;whiteSpace=wrap;html=1;align=center;" vertex="1" parent="1">
          <mxGeometry x="190" y="170" width="100" height="40" as="geometry" />
        </mxCell>
        <mxCell id="8Ee2z_IYM4hgPgskfKjv-3" value="username" style="ellipse;whiteSpace=wrap;html=1;align=center;" vertex="1" parent="1">
          <mxGeometry x="325" y="160" width="100" height="40" as="geometry" />
        </mxCell>
        <mxCell id="8Ee2z_IYM4hgPgskfKjv-4" value="id" style="ellipse;whiteSpace=wrap;html=1;align=center;fontStyle=4;" vertex="1" parent="1">
          <mxGeometry x="440" y="160" width="100" height="40" as="geometry" />
        </mxCell>
        <mxCell id="8Ee2z_IYM4hgPgskfKjv-5" value="profiel pic" style="ellipse;whiteSpace=wrap;html=1;align=center;" vertex="1" parent="1">
          <mxGeometry x="180" y="250" width="100" height="40" as="geometry" />
        </mxCell>
        <mxCell id="8Ee2z_IYM4hgPgskfKjv-9" style="edgeStyle=orthogonalEdgeStyle;rounded=0;orthogonalLoop=1;jettySize=auto;html=1;exitX=1;exitY=0.5;exitDx=0;exitDy=0;entryX=0;entryY=0.5;entryDx=0;entryDy=0;" edge="1" parent="1" source="8Ee2z_IYM4hgPgskfKjv-6" target="8Ee2z_IYM4hgPgskfKjv-7">
          <mxGeometry relative="1" as="geometry" />
        </mxCell>
        <mxCell id="8Ee2z_IYM4hgPgskfKjv-6" value="has" style="shape=rhombus;perimeter=rhombusPerimeter;whiteSpace=wrap;html=1;align=center;" vertex="1" parent="1">
          <mxGeometry x="780" y="260" width="120" height="60" as="geometry" />
        </mxCell>
        <mxCell id="8Ee2z_IYM4hgPgskfKjv-17" style="edgeStyle=orthogonalEdgeStyle;rounded=0;orthogonalLoop=1;jettySize=auto;html=1;exitX=0.5;exitY=1;exitDx=0;exitDy=0;entryX=0.5;entryY=0;entryDx=0;entryDy=0;" edge="1" parent="1" source="8Ee2z_IYM4hgPgskfKjv-7" target="8Ee2z_IYM4hgPgskfKjv-15">
          <mxGeometry relative="1" as="geometry" />
        </mxCell>
        <mxCell id="8Ee2z_IYM4hgPgskfKjv-44" style="edgeStyle=orthogonalEdgeStyle;rounded=0;orthogonalLoop=1;jettySize=auto;html=1;" edge="1" parent="1" source="8Ee2z_IYM4hgPgskfKjv-7" target="8Ee2z_IYM4hgPgskfKjv-43">
          <mxGeometry relative="1" as="geometry" />
        </mxCell>
        <mxCell id="8Ee2z_IYM4hgPgskfKjv-7" value="blog" style="whiteSpace=wrap;html=1;align=center;" vertex="1" parent="1">
          <mxGeometry x="1040" y="260" width="100" height="40" as="geometry" />
        </mxCell>
        <mxCell id="8Ee2z_IYM4hgPgskfKjv-10" value="1" style="text;html=1;align=center;verticalAlign=middle;resizable=0;points=[];autosize=1;strokeColor=none;fillColor=none;" vertex="1" parent="1">
          <mxGeometry x="505" y="258" width="30" height="30" as="geometry" />
        </mxCell>
        <mxCell id="8Ee2z_IYM4hgPgskfKjv-11" value="M" style="text;html=1;align=center;verticalAlign=middle;resizable=0;points=[];autosize=1;strokeColor=none;fillColor=none;" vertex="1" parent="1">
          <mxGeometry x="1005" y="238" width="30" height="30" as="geometry" />
        </mxCell>
        <mxCell id="8Ee2z_IYM4hgPgskfKjv-13" value="user_id" style="ellipse;whiteSpace=wrap;html=1;align=center;fontStyle=4;" vertex="1" parent="1">
          <mxGeometry x="1170" y="180" width="100" height="40" as="geometry" />
        </mxCell>
        <mxCell id="8Ee2z_IYM4hgPgskfKjv-14" value="blog id" style="ellipse;whiteSpace=wrap;html=1;align=center;fontStyle=4;" vertex="1" parent="1">
          <mxGeometry x="915" y="170" width="100" height="40" as="geometry" />
        </mxCell>
        <mxCell id="8Ee2z_IYM4hgPgskfKjv-18" style="edgeStyle=orthogonalEdgeStyle;rounded=0;orthogonalLoop=1;jettySize=auto;html=1;exitX=0.5;exitY=1;exitDx=0;exitDy=0;entryX=0.5;entryY=0;entryDx=0;entryDy=0;" edge="1" parent="1" source="8Ee2z_IYM4hgPgskfKjv-15" target="8Ee2z_IYM4hgPgskfKjv-16">
          <mxGeometry relative="1" as="geometry" />
        </mxCell>
        <mxCell id="8Ee2z_IYM4hgPgskfKjv-15" value="has" style="shape=rhombus;perimeter=rhombusPerimeter;whiteSpace=wrap;html=1;align=center;" vertex="1" parent="1">
          <mxGeometry x="1055" y="530" width="120" height="60" as="geometry" />
        </mxCell>
        <mxCell id="8Ee2z_IYM4hgPgskfKjv-28" style="edgeStyle=orthogonalEdgeStyle;rounded=0;orthogonalLoop=1;jettySize=auto;html=1;entryX=1.101;entryY=0.473;entryDx=0;entryDy=0;entryPerimeter=0;" edge="1" parent="1" source="8Ee2z_IYM4hgPgskfKjv-16" target="8Ee2z_IYM4hgPgskfKjv-27">
          <mxGeometry relative="1" as="geometry">
            <mxPoint x="950" y="870" as="targetPoint" />
          </mxGeometry>
        </mxCell>
        <mxCell id="8Ee2z_IYM4hgPgskfKjv-16" value="comment" style="whiteSpace=wrap;html=1;align=center;" vertex="1" parent="1">
          <mxGeometry x="1055" y="840" width="100" height="40" as="geometry" />
        </mxCell>
        <mxCell id="8Ee2z_IYM4hgPgskfKjv-19" value="1" style="text;html=1;align=center;verticalAlign=middle;resizable=0;points=[];autosize=1;strokeColor=none;fillColor=none;" vertex="1" parent="1">
          <mxGeometry x="1125" y="478" width="30" height="30" as="geometry" />
        </mxCell>
        <mxCell id="8Ee2z_IYM4hgPgskfKjv-21" value="M" style="text;html=1;align=center;verticalAlign=middle;resizable=0;points=[];autosize=1;strokeColor=none;fillColor=none;" vertex="1" parent="1">
          <mxGeometry x="1115" y="798" width="30" height="30" as="geometry" />
        </mxCell>
        <mxCell id="8Ee2z_IYM4hgPgskfKjv-22" value="text" style="ellipse;whiteSpace=wrap;html=1;align=center;" vertex="1" parent="1">
          <mxGeometry x="1115" y="130" width="100" height="40" as="geometry" />
        </mxCell>
        <mxCell id="8Ee2z_IYM4hgPgskfKjv-24" value="blog id" style="ellipse;whiteSpace=wrap;html=1;align=center;fontStyle=4;" vertex="1" parent="1">
          <mxGeometry x="1145" y="930" width="100" height="40" as="geometry" />
        </mxCell>
        <mxCell id="8Ee2z_IYM4hgPgskfKjv-25" value="comment id&amp;nbsp;" style="ellipse;whiteSpace=wrap;html=1;align=center;fontStyle=4;" vertex="1" parent="1">
          <mxGeometry x="1015" y="930" width="100" height="40" as="geometry" />
        </mxCell>
        <mxCell id="8Ee2z_IYM4hgPgskfKjv-26" value="title" style="ellipse;whiteSpace=wrap;html=1;align=center;" vertex="1" parent="1">
          <mxGeometry x="990" y="130" width="100" height="40" as="geometry" />
        </mxCell>
        <mxCell id="8Ee2z_IYM4hgPgskfKjv-30" style="edgeStyle=orthogonalEdgeStyle;rounded=0;orthogonalLoop=1;jettySize=auto;html=1;exitX=0;exitY=0.5;exitDx=0;exitDy=0;" edge="1" parent="1" source="8Ee2z_IYM4hgPgskfKjv-27">
          <mxGeometry relative="1" as="geometry">
            <mxPoint x="479.9999999999998" y="870" as="targetPoint" />
          </mxGeometry>
        </mxCell>
        <mxCell id="8Ee2z_IYM4hgPgskfKjv-27" value="get" style="shape=rhombus;perimeter=rhombusPerimeter;whiteSpace=wrap;html=1;align=center;" vertex="1" parent="1">
          <mxGeometry x="800" y="840" width="120" height="60" as="geometry" />
        </mxCell>
        <mxCell id="8Ee2z_IYM4hgPgskfKjv-31" value="1" style="text;html=1;align=center;verticalAlign=middle;resizable=0;points=[];autosize=1;strokeColor=none;fillColor=none;" vertex="1" parent="1">
          <mxGeometry x="975" y="808" width="30" height="30" as="geometry" />
        </mxCell>
        <mxCell id="8Ee2z_IYM4hgPgskfKjv-32" value="M" style="text;html=1;align=center;verticalAlign=middle;resizable=0;points=[];autosize=1;strokeColor=none;fillColor=none;" vertex="1" parent="1">
          <mxGeometry x="505" y="838" width="30" height="30" as="geometry" />
        </mxCell>
        <mxCell id="8Ee2z_IYM4hgPgskfKjv-33" value="replay" style="shape=ext;margin=3;double=1;whiteSpace=wrap;html=1;align=center;" vertex="1" parent="1">
          <mxGeometry x="375" y="850" width="100" height="40" as="geometry" />
        </mxCell>
        <mxCell id="8Ee2z_IYM4hgPgskfKjv-34" value="text replay" style="ellipse;whiteSpace=wrap;html=1;align=center;" vertex="1" parent="1">
          <mxGeometry x="240" y="810" width="100" height="40" as="geometry" />
        </mxCell>
        <mxCell id="8Ee2z_IYM4hgPgskfKjv-35" value="user id" style="ellipse;whiteSpace=wrap;html=1;align=center;fontStyle=4;" vertex="1" parent="1">
          <mxGeometry x="240" y="930" width="100" height="40" as="geometry" />
        </mxCell>
        <mxCell id="8Ee2z_IYM4hgPgskfKjv-36" value="comment id" style="ellipse;whiteSpace=wrap;html=1;align=center;fontStyle=4;" vertex="1" parent="1">
          <mxGeometry x="240" y="868" width="100" height="40" as="geometry" />
        </mxCell>
        <mxCell id="8Ee2z_IYM4hgPgskfKjv-38" value="time" style="ellipse;whiteSpace=wrap;html=1;align=center;" vertex="1" parent="1">
          <mxGeometry x="1055" y="70" width="100" height="40" as="geometry" />
        </mxCell>
        <mxCell id="8Ee2z_IYM4hgPgskfKjv-39" value="date of birth" style="ellipse;whiteSpace=wrap;html=1;align=center;" vertex="1" parent="1">
          <mxGeometry x="190" y="330" width="100" height="40" as="geometry" />
        </mxCell>
        <mxCell id="8Ee2z_IYM4hgPgskfKjv-40" value="image" style="ellipse;whiteSpace=wrap;html=1;align=center;" vertex="1" parent="1">
          <mxGeometry x="1045" y="180" width="100" height="40" as="geometry" />
        </mxCell>
        <mxCell id="8Ee2z_IYM4hgPgskfKjv-42" value="count like" style="whiteSpace=wrap;html=1;align=center;" vertex="1" parent="1">
          <mxGeometry x="1610" y="258" width="100" height="40" as="geometry" />
        </mxCell>
        <mxCell id="8Ee2z_IYM4hgPgskfKjv-45" style="edgeStyle=orthogonalEdgeStyle;rounded=0;orthogonalLoop=1;jettySize=auto;html=1;entryX=0;entryY=0.25;entryDx=0;entryDy=0;" edge="1" parent="1" source="8Ee2z_IYM4hgPgskfKjv-43" target="8Ee2z_IYM4hgPgskfKjv-42">
          <mxGeometry relative="1" as="geometry" />
        </mxCell>
        <mxCell id="8Ee2z_IYM4hgPgskfKjv-43" value="get" style="shape=rhombus;perimeter=rhombusPerimeter;whiteSpace=wrap;html=1;align=center;" vertex="1" parent="1">
          <mxGeometry x="1260" y="243" width="120" height="60" as="geometry" />
        </mxCell>
        <mxCell id="8Ee2z_IYM4hgPgskfKjv-46" value="1" style="text;html=1;align=center;verticalAlign=middle;resizable=0;points=[];autosize=1;strokeColor=none;fillColor=none;" vertex="1" parent="1">
          <mxGeometry x="1155" y="288" width="30" height="30" as="geometry" />
        </mxCell>
        <mxCell id="8Ee2z_IYM4hgPgskfKjv-47" value="M" style="text;html=1;align=center;verticalAlign=middle;resizable=0;points=[];autosize=1;strokeColor=none;fillColor=none;" vertex="1" parent="1">
          <mxGeometry x="1560" y="238" width="30" height="30" as="geometry" />
        </mxCell>
        <mxCell id="8Ee2z_IYM4hgPgskfKjv-48" value="blog id" style="ellipse;whiteSpace=wrap;html=1;align=center;fontStyle=4;" vertex="1" parent="1">
          <mxGeometry x="1540" y="170" width="100" height="40" as="geometry" />
        </mxCell>
        <mxCell id="8Ee2z_IYM4hgPgskfKjv-49" value="count like" style="ellipse;whiteSpace=wrap;html=1;align=center;" vertex="1" parent="1">
          <mxGeometry x="1660" y="170" width="100" height="40" as="geometry" />
        </mxCell>
        <mxCell id="8Ee2z_IYM4hgPgskfKjv-50" value="count sad" style="ellipse;whiteSpace=wrap;html=1;align=center;" vertex="1" parent="1">
          <mxGeometry x="1800" y="170" width="100" height="40" as="geometry" />
        </mxCell>
        <mxCell id="8Ee2z_IYM4hgPgskfKjv-51" value="count angre&lt;span style=&quot;color: rgba(0, 0, 0, 0); font-family: monospace; font-size: 0px; text-align: start; text-wrap: nowrap;&quot;&gt;%3CmxGraphModel%3E%3Croot%3E%3CmxCell%20id%3D%220%22%2F%3E%3CmxCell%20id%3D%221%22%20parent%3D%220%22%2F%3E%3CmxCell%20id%3D%222%22%20value%3D%22user_id%22%20style%3D%22ellipse%3BwhiteSpace%3Dwrap%3Bhtml%3D1%3Balign%3Dcenter%3BfontStyle%3D4%3B%22%20vertex%3D%221%22%20parent%3D%221%22%3E%3CmxGeometry%20x%3D%221175%22%20y%3D%22170%22%20width%3D%22100%22%20height%3D%2240%22%20as%3D%22geometry%22%2F%3E%3C%2FmxCell%3E%3C%2Froot%3E%3C%2FmxGraphModel%3E&lt;/span&gt;" style="ellipse;whiteSpace=wrap;html=1;align=center;" vertex="1" parent="1">
          <mxGeometry x="1800" y="110" width="100" height="40" as="geometry" />
        </mxCell>
        <mxCell id="8Ee2z_IYM4hgPgskfKjv-52" value="count love" style="ellipse;whiteSpace=wrap;html=1;align=center;" vertex="1" parent="1">
          <mxGeometry x="1660" y="110" width="100" height="40" as="geometry" />
        </mxCell>
        <mxCell id="8Ee2z_IYM4hgPgskfKjv-54" value="user id" style="ellipse;whiteSpace=wrap;html=1;align=center;fontStyle=4;" vertex="1" parent="1">
          <mxGeometry x="1540" y="110" width="100" height="40" as="geometry" />
        </mxCell>
        <mxCell id="8Ee2z_IYM4hgPgskfKjv-59" style="edgeStyle=orthogonalEdgeStyle;rounded=0;orthogonalLoop=1;jettySize=auto;html=1;exitX=0.5;exitY=1;exitDx=0;exitDy=0;entryX=1;entryY=0.5;entryDx=0;entryDy=0;" edge="1" parent="1" source="8Ee2z_IYM4hgPgskfKjv-56" target="8Ee2z_IYM4hgPgskfKjv-57">
          <mxGeometry relative="1" as="geometry" />
        </mxCell>
        <mxCell id="8Ee2z_IYM4hgPgskfKjv-56" value="has" style="shape=rhombus;perimeter=rhombusPerimeter;whiteSpace=wrap;html=1;align=center;" vertex="1" parent="1">
          <mxGeometry x="350" y="450" width="120" height="60" as="geometry" />
        </mxCell>
        <mxCell id="8Ee2z_IYM4hgPgskfKjv-57" value="liked blog" style="whiteSpace=wrap;html=1;align=center;" vertex="1" parent="1">
          <mxGeometry x="140" y="600" width="100" height="40" as="geometry" />
        </mxCell>
        <mxCell id="8Ee2z_IYM4hgPgskfKjv-60" value="1" style="text;html=1;align=center;verticalAlign=middle;resizable=0;points=[];autosize=1;strokeColor=none;fillColor=none;" vertex="1" parent="1">
          <mxGeometry x="445" y="328" width="30" height="30" as="geometry" />
        </mxCell>
        <mxCell id="8Ee2z_IYM4hgPgskfKjv-61" value="M" style="text;html=1;align=center;verticalAlign=middle;resizable=0;points=[];autosize=1;strokeColor=none;fillColor=none;" vertex="1" parent="1">
          <mxGeometry x="245" y="578" width="30" height="30" as="geometry" />
        </mxCell>
        <mxCell id="8Ee2z_IYM4hgPgskfKjv-63" value="user id" style="ellipse;whiteSpace=wrap;html=1;align=center;fontStyle=4;" vertex="1" parent="1">
          <mxGeometry x="80" y="530" width="100" height="40" as="geometry" />
        </mxCell>
        <mxCell id="8Ee2z_IYM4hgPgskfKjv-64" value="blog id" style="ellipse;whiteSpace=wrap;html=1;align=center;fontStyle=4;" vertex="1" parent="1">
          <mxGeometry x="20" y="600" width="100" height="40" as="geometry" />
        </mxCell>
        <mxCell id="8Ee2z_IYM4hgPgskfKjv-65" value="&lt;div&gt;&lt;br&gt;&lt;/div&gt;&lt;div&gt;هنا انا عايز اعرض البوست ورا بعض وخلاص بترتيب الاعجاب بتاع المستخدم&lt;/div&gt;" style="shape=note;size=20;whiteSpace=wrap;html=1;" vertex="1" parent="1">
          <mxGeometry x="40" y="670" width="100" height="100" as="geometry" />
        </mxCell>
        <mxCell id="8Ee2z_IYM4hgPgskfKjv-67" value="time" style="ellipse;whiteSpace=wrap;html=1;align=center;" vertex="1" parent="1">
          <mxGeometry x="1760" y="253" width="100" height="40" as="geometry" />
        </mxCell>
        <mxCell id="8Ee2z_IYM4hgPgskfKjv-68" value="time" style="ellipse;whiteSpace=wrap;html=1;align=center;" vertex="1" parent="1">
          <mxGeometry x="1225" y="870" width="100" height="40" as="geometry" />
        </mxCell>
        <mxCell id="8Ee2z_IYM4hgPgskfKjv-69" value="user id" style="ellipse;whiteSpace=wrap;html=1;align=center;fontStyle=4;" vertex="1" parent="1">
          <mxGeometry x="1085" y="1000" width="100" height="40" as="geometry" />
        </mxCell>
      </root>
    </mxGraphModel>
  </diagram>
</mxfile>
